# xmcd
#
# Track frame offsets: 
#        187
#        19470
#        44622
#        62197
#        74202
#        90642
#        107302
#        125282
#        145467
#        166290
#
# Disc length: 2689 seconds
#
# Revision: 2
# Processed by: cddbd v1.5.2PL0 Copyright (c) Steve Scherf et al.
# Submitted via: ExactAudioCopyFreeDBPlugin 1.0
#
DISCID=940a7f0a
DTITLE=Alabama - T H E   T O U C H     1 9 8 6
DYEAR=1986
DGENRE=Country Pop
TTITLE0=Youve Got The Touch  1986
TTITLE1=Vacation  1986
TTITLE2=True, True Housewife  1986
TTITLE3=Is This How Love Begins  1986
TTITLE4=Cruisin'  1986
TTITLE5=Touch Me When We're Dancing  1986
TTITLE6=Let's Hear It For The Girl  1986
TTITLE7=It's All Comin' Back To Me Now  1986
TTITLE8=I Taught Her Everything She Knows  1986
TTITLE9=Pony Express  1986
EXTD=
EXTT0=
EXTT1=
EXTT2=
EXTT3=
EXTT4=
EXTT5=
EXTT6=
EXTT7=
EXTT8=
EXTT9=
PLAYORDER=
